<global>
ampeg_release=5.0
master-volume=9.0

<group>
group_label=RR1
seq_length=2
seq_position=1

<region>
hivel=127
key=A#4
lovel=86
offset=14368
sample=TubularBells_Soft_sustain_F_A#4_RR1.opus

<region>
hivel=127
key=A4
lovel=86
sample=TubularBells_Soft_sustain_F_A4_RR1.opus

<region>
hivel=127
key=B4
lovel=86
sample=TubularBells_Soft_sustain_F_B4_RR1.opus

<region>
hivel=127
key=C#4
lovel=86
sample=TubularBells_Soft_sustain_F_C#4_RR1.opus

<region>
hivel=127
key=C#5
lovel=86
sample=TubularBells_Soft_sustain_F_C#5_RR1.opus

<region>
hikey=C4
hivel=127
lokey=C4
lovel=86
offset=1438
sample=TubularBells_Soft_sustain_F_C4_RR1.opus

<region>
hivel=127
key=C5
lovel=86
sample=TubularBells_Soft_sustain_F_C5_RR1.opus

<region>
hivel=127
key=D#4
lovel=86
offset=14210
sample=TubularBells_Soft_sustain_F_D#4_RR1.opus

<region>
hikey=F5
hivel=127
lokey=D#5
lovel=86
offset=13351
pitch_keycenter=D#5
sample=TubularBells_Soft_sustain_F_D#5_RR1.opus

<region>
hivel=127
key=D4
lovel=86
sample=TubularBells_Soft_sustain_F_D4_RR1.opus

<region>
hivel=127
key=D5
lovel=86
offset=11096
sample=TubularBells_Soft_sustain_F_D5_RR1.opus

<region>
hivel=127
key=E4
lovel=86
sample=TubularBells_Soft_sustain_F_E4_RR1.opus

<region>
hivel=127
key=F#4
lovel=86
sample=TubularBells_Soft_sustain_F_F#4_RR1.opus

<region>
hivel=127
key=F4
lovel=86
sample=TubularBells_Soft_sustain_F_F4_RR1.opus

<region>
hivel=127
key=G#4
lovel=86
sample=TubularBells_Soft_sustain_F_G#4_RR1.opus

<region>
hivel=127
key=G4
lovel=86
offset=14137
sample=TubularBells_Soft_sustain_F_G4_RR1.opus

<region>
hivel=85
key=A#4
lovel=43
offset=14201
sample=TubularBells_Soft_sustain_MF_A#4_RR1.opus

<region>
hivel=85
key=A4
lovel=43
offset=14051
sample=TubularBells_Soft_sustain_MF_A4_RR1.opus

<region>
hivel=85
key=B4
lovel=43
offset=13922
sample=TubularBells_Soft_sustain_MF_B4_RR1.opus

<region>
hivel=85
key=C#4
lovel=43
offset=14475
sample=TubularBells_Soft_sustain_MF_C#4_RR1.opus

<region>
hivel=85
key=C#5
lovel=43
offset=14165
sample=TubularBells_Soft_sustain_MF_C#5_RR1.opus

<region>
hikey=C4
hivel=85
lokey=C4
lovel=43
offset=1722
sample=TubularBells_Soft_sustain_MF_C4_RR1.opus

<region>
hivel=85
key=C5
lovel=43
offset=14172
sample=TubularBells_Soft_sustain_MF_C5_RR1.opus

<region>
hivel=85
key=D#4
lovel=43
offset=14270
sample=TubularBells_Soft_sustain_MF_D#4_RR1.opus

<region>
hikey=F5
hivel=85
lokey=D#5
lovel=43
offset=13963
pitch_keycenter=D#5
sample=TubularBells_Soft_sustain_MF_D#5_RR1.opus

<region>
hivel=85
key=D4
lovel=43
offset=14430
sample=TubularBells_Soft_sustain_MF_D4_RR1.opus

<region>
hivel=85
key=D5
lovel=43
offset=14185
sample=TubularBells_Soft_sustain_MF_D5_RR1.opus

<region>
hivel=85
key=E4
lovel=43
offset=13015
sample=TubularBells_Soft_sustain_MF_E4_RR1.opus

<region>
hivel=85
key=F#4
lovel=43
offset=14267
sample=TubularBells_Soft_sustain_MF_F#4_RR1.opus

<region>
hivel=85
key=F4
lovel=43
offset=14448
sample=TubularBells_Soft_sustain_MF_F4_RR1.opus

<region>
hivel=85
key=G#4
lovel=43
offset=12448
sample=TubularBells_Soft_sustain_MF_G#4_RR1.opus

<region>
hivel=85
key=G4
lovel=43
offset=14332
sample=TubularBells_Soft_sustain_MF_G4_RR1.opus

<region>
hivel=42
key=A#4
lovel=0
sample=TubularBells_Soft_sustain_P_A#4_RR1.opus

<region>
hivel=42
key=A4
lovel=0
sample=TubularBells_Soft_sustain_P_A4_RR1.opus

<region>
hivel=42
key=B4
lovel=0
sample=TubularBells_Soft_sustain_P_B4_RR1.opus

<region>
hivel=42
key=C#4
lovel=0
sample=TubularBells_Soft_sustain_P_C#4_RR1.opus

<region>
hivel=42
key=C#5
lovel=0
offset=2695
sample=TubularBells_Soft_sustain_P_C#5_RR1.opus

<region>
hikey=C4
hivel=42
lokey=C4
lovel=0
sample=TubularBells_Soft_sustain_P_C4_RR1.opus

<region>
hivel=42
key=C5
lovel=0
offset=1925
sample=TubularBells_Soft_sustain_P_C5_RR1.opus

<region>
hivel=42
key=D#4
lovel=0
sample=TubularBells_Soft_sustain_P_D#4_RR1.opus

<region>
hivel=42
key=D4
lovel=0
sample=TubularBells_Soft_sustain_P_D4_RR1.opus

<region>
hivel=42
key=D5
lovel=0
sample=TubularBells_Soft_sustain_P_D5_RR1.opus

<region>
hivel=42
key=E4
lovel=0
sample=TubularBells_Soft_sustain_P_E4_RR1.opus

<region>
hivel=42
key=F#4
lovel=0
offset=106
sample=TubularBells_Soft_sustain_P_F#4_RR1.opus

<region>
hivel=42
key=F4
lovel=0
sample=TubularBells_Soft_sustain_P_F4_RR1.opus

<region>
hivel=42
key=G#4
lovel=0
sample=TubularBells_Soft_sustain_P_G#4_RR1.opus

<region>
hivel=42
key=G4
lovel=0
offset=322
sample=TubularBells_Soft_sustain_P_G4_RR1.opus

<region>
end=465542
hikey=F5
hivel=42
lokey=D#5
lovel=0
pitch_keycenter=D#5
sample=TubularBells_Soft_legato_repeat_P_D#5_RR1.opus

<group>
group_label=RR2
seq_length=2
seq_position=2

<region>
hivel=127
key=A#4
lovel=86
sample=TubularBells_Soft_sustain_F_A#4_RR2.opus

<region>
hivel=127
key=A4
lovel=86
sample=TubularBells_Soft_sustain_F_A4_RR2.opus

<region>
hivel=127
key=B4
lovel=86
sample=TubularBells_Soft_sustain_F_B4_RR2.opus

<region>
hivel=127
key=C#4
lovel=86
sample=TubularBells_Soft_sustain_F_C#4_RR2.opus

<region>
hivel=127
key=C#5
lovel=86
sample=TubularBells_Soft_sustain_F_C#5_RR2.opus

<region>
hikey=C4
hivel=127
lokey=C4
lovel=86
offset=10092
sample=TubularBells_Soft_sustain_F_C4_RR2.opus

<region>
hivel=127
key=C5
lovel=86
sample=TubularBells_Soft_sustain_F_C5_RR2.opus

<region>
hivel=127
key=D#4
lovel=86
offset=14220
sample=TubularBells_Soft_sustain_F_D#4_RR2.opus

<region>
hikey=F5
hivel=127
lokey=D#5
lovel=86
pitch_keycenter=D#5
sample=TubularBells_Soft_sustain_F_D#5_RR2.opus

<region>
hivel=127
key=D4
lovel=86
sample=TubularBells_Soft_sustain_F_D4_RR2.opus

<region>
hivel=127
key=D5
lovel=86
sample=TubularBells_Soft_sustain_F_D5_RR2.opus

<region>
hivel=127
key=E4
lovel=86
sample=TubularBells_Soft_sustain_F_E4_RR2.opus

<region>
hivel=127
key=F#4
lovel=86
sample=TubularBells_Soft_sustain_F_F#4_RR2.opus

<region>
hivel=127
key=F4
lovel=86
sample=TubularBells_Soft_sustain_F_F4_RR2.opus

<region>
hivel=127
key=G#4
lovel=86
sample=TubularBells_Soft_sustain_F_G#4_RR2.opus

<region>
hivel=127
key=G4
lovel=86
sample=TubularBells_Soft_sustain_F_G4_RR2.opus

<region>
hivel=85
key=A#4
lovel=43
offset=14215
sample=TubularBells_Soft_sustain_MF_A#4_RR2.opus

<region>
hivel=85
key=A4
lovel=43
offset=14138
sample=TubularBells_Soft_sustain_MF_A4_RR2.opus

<region>
hivel=85
key=B4
lovel=43
offset=14181
sample=TubularBells_Soft_sustain_MF_B4_RR2.opus

<region>
hivel=85
key=C#4
lovel=43
offset=8718
sample=TubularBells_Soft_sustain_MF_C#4_RR2.opus

<region>
hivel=85
key=C#5
lovel=43
offset=14214
sample=TubularBells_Soft_sustain_MF_C#5_RR2.opus

<region>
hikey=C4
hivel=85
lokey=C4
lovel=43
offset=14351
sample=TubularBells_Soft_sustain_MF_C4_RR2.opus

<region>
hivel=85
key=C5
lovel=43
offset=13575
sample=TubularBells_Soft_sustain_MF_C5_RR2.opus

<region>
hivel=85
key=D#4
lovel=43
offset=14268
sample=TubularBells_Soft_sustain_MF_D#4_RR2.opus

<region>
hikey=F5
hivel=85
lokey=D#5
lovel=43
offset=14371
pitch_keycenter=D#5
sample=TubularBells_Soft_sustain_MF_D#5_RR2.opus

<region>
hivel=85
key=D4
lovel=43
offset=14352
sample=TubularBells_Soft_sustain_MF_D4_RR2.opus

<region>
hivel=85
key=D5
lovel=43
offset=14030
sample=TubularBells_Soft_sustain_MF_D5_RR2.opus

<region>
hivel=85
key=E4
lovel=43
sample=TubularBells_Soft_sustain_MF_E4_RR2.opus

<region>
hivel=85
key=F#4
lovel=43
offset=14195
sample=TubularBells_Soft_sustain_MF_F#4_RR2.opus

<region>
hivel=85
key=F4
lovel=43
offset=14284
sample=TubularBells_Soft_sustain_MF_F4_RR2.opus

<region>
hivel=85
key=G#4
lovel=43
offset=5516
sample=TubularBells_Soft_sustain_MF_G#4_RR2.opus

<region>
hivel=85
key=G4
lovel=43
offset=13279
sample=TubularBells_Soft_sustain_MF_G4_RR2.opus

<region>
hivel=42
key=A#4
lovel=0
offset=1157
sample=TubularBells_Soft_sustain_P_A#4_RR2.opus

<region>
hivel=42
key=A4
lovel=0
sample=TubularBells_Soft_sustain_P_A4_RR2.opus

<region>
hivel=42
key=B4
lovel=0
sample=TubularBells_Soft_sustain_P_B4_RR2.opus

<region>
hivel=42
key=C#4
lovel=0
sample=TubularBells_Soft_sustain_P_C#4_RR2.opus

<region>
hivel=42
key=C#5
lovel=0
offset=6045
sample=TubularBells_Soft_sustain_P_C#5_RR2.opus

<region>
hikey=C4
hivel=42
lokey=C4
lovel=0
sample=TubularBells_Soft_sustain_P_C4_RR2.opus

<region>
hivel=42
key=C5
lovel=0
sample=TubularBells_Soft_sustain_P_C5_RR2.opus

<region>
hivel=42
key=D#4
lovel=0
sample=TubularBells_Soft_sustain_P_D#4_RR2.opus

<region>
hivel=42
key=D4
lovel=0
sample=TubularBells_Soft_sustain_P_D4_RR2.opus

<region>
hivel=42
key=D5
lovel=0
sample=TubularBells_Soft_sustain_P_D5_RR2.opus

<region>
hivel=42
key=E4
lovel=0
sample=TubularBells_Soft_sustain_P_E4_RR2.opus

<region>
hivel=42
key=F#4
lovel=0
offset=2456
sample=TubularBells_Soft_sustain_P_F#4_RR2.opus

<region>
hivel=42
key=F4
lovel=0
sample=TubularBells_Soft_sustain_P_F4_RR2.opus

<region>
hivel=42
key=G#4
lovel=0
sample=TubularBells_Soft_sustain_P_G#4_RR2.opus

<region>
hivel=42
key=G4
lovel=0
sample=TubularBells_Soft_sustain_P_G4_RR2.opus

<region>
hikey=F5
hivel=42
lokey=D#5
lovel=0
pitch_keycenter=D#5
sample=TubularBells_Soft_legato_repeat_P_D#5_RR2.opus

